<!DOCTYPE svg PUBLIC "-//W3C//DTD SVG 1.1//EN" "http://www.w3.org/Graphics/SVG/1.1/DTD/svg11.dtd">
<!-- Uploaded to: SVG Repo, www.svgrepo.com, Transformed by: SVG Repo Mixer Tools -->
<svg height="800px" width="800px" version="1.1" id="_x32_" xmlns="http://www.w3.org/2000/svg" xmlns:xlink="http://www.w3.org/1999/xlink" viewBox="0 0 512 512" xml:space="preserve" fill="#000000">
<g id="SVGRepo_bgCarrier" stroke-width="0"/>
<g id="SVGRepo_tracerCarrier" stroke-linecap="round" stroke-linejoin="round"/>
<g id="SVGRepo_iconCarrier"> <style type="text/css"> .st0{fill:#ffffff;} </style> <g> <path class="st0" d="M209.145,273.343c-8.941-6.364-17.106-12.295-23.094-16.882c-8.357-6.395-19.547-15.92-31.763-26.711 c-12.223-10.79-25.447-22.83-37.654-34.084c-8.925-8.237-17.306-16.05-24.35-22.662L22.853,410.503l25.23-0.008l34.052-95.839 h70.617l-15.129,45.394l-45.402-1.265l-39.095,148.19c0,0,152.601,17.026,168.994-30.898c7.54-22.053,14.544-44.354,19.916-62.028 l22.845-101.931C254.659,305.122,229.853,288.088,209.145,273.343z"/> <path class="st0" d="M473.083,471.043c-49.189-54.872,6.308-141.266,6.308-261.065C479.391,90.18,382.903,0,263.104,0 C196.49,0,126.001,20.004,70.552,57.041c-6.876,4.595-10.862,15.177,2.746,19.307c22.108,6.692,56.113,21.741,82.336,54.448 c22.061-6.996,50.918-13.464,81.952-13.488c25.471,0,52.455,4.41,77.966,16.802c25.503,12.359,49.372,32.771,68.319,63.869 c6.524,10.678,10.99,21.7,13.808,32.707c2.834,11.006,4.01,21.997,4.01,32.667c-0.024,29.337-8.837,56.256-17.522,75.964 c-1.745,3.947-3.49,7.589-5.156,10.919c12.263,4.674,20.172,20.444,24.711,56.481c8.829,69.993,37.822,87.418,58.01,100.258 C482.536,520.224,505.277,506.943,473.083,471.043z"/> <path class="st0" d="M346.97,386.537c-1.705-17.034,3.498-28.856,11.719-34.38c2.841-5.02,6.38-11.744,9.902-19.724 c8.108-18.315,16.097-43.218,16.073-69.08c0-9.414-1.041-18.963-3.466-28.433c-2.441-9.477-6.251-18.883-11.854-28.072 c-17.435-28.521-38.583-46.403-61.236-57.425c-22.653-11.015-46.988-15.089-70.522-15.089c-26.295-0.024-51.47,5.131-71.561,11.087 c5.459,8.716,10.374,18.402,14.472,29.257c0,0-15.009,9.653-33.172,25.983c6.172,5.588,12.327,11.119,18.219,16.33 c12.07,10.662,23.117,20.044,30.849,25.951c4.98,3.811,11.791,8.781,19.348,14.184c7.556,5.412,15.873,11.262,23.91,16.874 c16.089,11.222,31.114,21.525,36.99,25.527c1.673,1.152,2.602,1.776,2.602,1.776l4.787,3.258l-21.197,94.567 c15.545,25.736,48.796,66.552,101.796,63.077c16.401,0,15.136-17.658,15.136-17.658S349.491,411.76,346.97,386.537z"/> </g> </g>
</svg>